<?xml version="1.0" encoding="utf-8"?>
<!-- Generator: Adobe Illustrator 25.2.1, SVG Export Plug-In . SVG Version: 6.00 Build 0)  -->
<svg version="1.1" id="Capa_1" xmlns="http://www.w3.org/2000/svg" xmlns:xlink="http://www.w3.org/1999/xlink" x="0px" y="0px"
	 viewBox="0 0 800 800" style="enable-background:new 0 0 800 800;" xml:space="preserve">
<style type="text/css">
	.st0{fill:#E30613;}
</style>
<g>
	<g>
		<path class="st0" d="M577.62,308.9c0-2.25,0-3.48,0-4.7c0-8.74-0.62-17.54,0.18-26.2c0.73-7.94-2.25-12.32-8.92-16.33
			c-18.59-11.17-38.61-17.92-59.85-21.28c-14.8-2.34-29.66-3.46-44.71-2.4c-26.56,1.87-49.89,11.35-70.04,28.64
			c-16.42,14.09-29.11,31.11-38.85,50.38c-0.5,0.99-1.03,1.97-1.39,2.65c-8.55-11.41-17.11-22.82-26.13-34.87
			c17.06-25.33,39.51-46.15,66.74-61.83c36.4-20.95,75.67-29.31,117.43-26.26c93.66,6.85,175.08,81.27,184.91,181.67
			c9.82,100.37-52.44,186.09-140.95,213.88c-89.1,27.97-181.38-9.01-228.1-79.62c8.47-11.18,16.86-22.23,25.35-33.43
			c0.67,1.41,1.46,3.06,2.24,4.71c17.66,37.21,45.4,62.55,86.13,71.88c37.37,8.56,73.68,4.74,108.04-12.54
			c12.99-6.53,25.14-14.74,37.7-22.14c2.65-1.56,3.59-3.67,3.53-6.78c-0.19-9.74-0.06-19.48-0.09-29.22c0-1.32-0.17-2.64-0.31-4.69
			c-3.76,1.84-6.96,3.37-10.12,4.97c-11.13,5.64-22.13,11.56-33.4,16.92c-15.67,7.44-31.85,7.74-47.96,1.62
			c-10.88-4.13-14.34-9.88-14.34-21.52c-0.01-52.19-0.04-104.39,0.05-156.58c0.01-5.09,0.33-10.27,1.3-15.25
			c2.45-12.61,11.3-20.32,24.1-22.15c14.88-2.13,28.77,1.47,42.2,7.2c7.2,3.07,14,7.1,20.97,10.72
			C574.5,306.95,575.61,307.69,577.62,308.9z"/>
		<path class="st0" d="M188.39,506.71c-8.12-3.16-16.31-5.58-23.8-9.39c-33.29-16.92-53.94-43.82-60.33-80.68
			c-10.56-60.9,29.8-113.26,82.55-126.2c64.25-15.76,127.79,27.57,136.46,93.28c7.21,54.68-26.73,105.97-80.13,120.96
			c-2.93,0.82-4.06,1.63-3.32,5.05c0.57,2.59-0.5,5.54-0.9,8.79c1.35-0.24,2.68-0.35,3.92-0.71c46.31-13.58,76.21-43.68,90.24-89.74
			c0.78-2.57,0.49-4.47-1.2-7.03c-5.85-8.88-3.44-23.04,9.17-24.89c7.15-1.05,13.78,4.01,14.41,11.76
			c0.45,5.64,0.26,11.28-4.78,15.38c-0.73,0.6-0.9,1.98-1.17,3.04c-11.3,45.81-38.15,79.03-81.01,98.74
			c-9.96,4.58-20.81,7.56-31.54,10.01c-9.61,2.2-18.2-1.01-24.56-9.09c-0.72-0.91-2.13-1.62-3.3-1.76c-2.34-0.27-4.73-0.09-7.1-0.09
			c-9.67-0.01-14.96-6.02-13.79-15.64C188.29,507.81,188.35,507.1,188.39,506.71z"/>
		<path class="st0" d="M197.38,559.77c1.96,0,3.79-0.11,5.61,0.02c27.06,1.82,52.77-3.47,77.35-14.7c5.49-2.51,4.04-2.96,7.82,2.13
			c43.81,59.08,101.82,94.38,174.9,104.41c4.57,0.63,9.2,0.8,13.76,1.48c3.63,0.55,5.19-1.04,6.03-4.33
			c2.03-7.98,4.39-15.87,6.3-23.88c0.66-2.77,1.6-3.88,4.63-3.83c10.33,0.2,20.67,0.08,31.6,0.08c-0.4,1.93-0.64,3.46-1.03,4.96
			c-9.54,36.33-19.12,72.66-28.58,109.01c-0.66,2.53-1.61,3.37-4.25,3.3c-58.41-1.35-113.28-15.75-164.06-44.83
			c-54.66-31.3-97.38-74.57-128.27-129.49c-0.55-0.98-1.08-1.97-1.57-2.98C197.46,560.81,197.48,560.42,197.38,559.77z"/>
		<path class="st0" d="M525.33,176.43c-6.37,0-12.2,0-18.04,0c-4.37,0-8.75-0.23-13.1,0.07c-3.35,0.23-4.45-1.11-5.15-4.22
			c-1.68-7.42-3.74-14.75-5.82-22.07c-1.64-5.75-1.75-5.67-7.83-5.31c-20.42,1.19-40.3,5.27-59.66,11.73
			c-52.82,17.63-95.31,49.34-127.98,94.36c-0.73,1.01-1.49,2-2.26,2.98c-0.14,0.18-0.42,0.26-0.9,0.54
			c-27.37-13.5-56.47-19.12-87.98-16.37c3.04-5.3,5.56-9.99,8.35-14.51c47.72-77.22,115.26-128.21,202.7-152.51
			c13.61-3.78,27.34-7.12,41.56-8.69c0.73-0.08,2.04-0.32,2.78-0.42c22-3,27-2,40.64,0.27c2.23,0.37,3.23,0.65,3.82,2.91
			c9.29,35.63,18.69,71.22,28.05,106.83C524.82,173.2,524.96,174.43,525.33,176.43z"/>
	</g>
</g>
</svg>
